<svg width="24" height="11" viewBox="0 0 24 11" fill="none" xmlns="http://www.w3.org/2000/svg">
<g id="GooglePay">
<g id="Pay">
<path id="Union" fill-rule="evenodd" clip-rule="evenodd" d="M11.1133 8.10153V5.20645H12.5388C13.123 5.20645 13.616 5.00128 14.018 4.59666L14.1144 4.49407C14.8486 3.65632 14.8004 2.35126 14.018 1.5762C13.6267 1.16587 13.0908 0.94361 12.5388 0.955008H10.2505V8.10153H11.1133ZM11.1134 4.32881V1.83266H12.5606C12.8715 1.83266 13.1663 1.95803 13.386 2.18599C13.8524 2.66471 13.8631 3.46257 13.4128 3.95838C13.1931 4.20343 12.8822 4.34021 12.5606 4.32881H11.1134ZM18.1392 3.59365C17.7694 3.23462 17.2656 3.05225 16.6279 3.05225C15.8079 3.05225 15.1916 3.37139 14.7843 4.00398L15.5453 4.51119C15.824 4.07807 16.2045 3.86151 16.6868 3.86151C16.9923 3.86151 17.2871 3.98118 17.5175 4.19774C17.7426 4.40291 17.8712 4.69925 17.8712 5.0127V5.22356C17.5389 5.0298 17.1209 4.92721 16.6065 4.92721C16.0062 4.92721 15.5239 5.07539 15.1648 5.37743C14.8058 5.67948 14.6236 6.07841 14.6236 6.58562C14.6129 7.04723 14.8004 7.48606 15.1327 7.7824C15.4703 8.10155 15.899 8.26112 16.4028 8.26112C16.9977 8.26112 17.4693 7.98187 17.8283 7.42337H17.8659V8.10155H18.6912V5.08679C18.6912 4.4542 18.509 3.95269 18.1392 3.59365ZM15.7974 7.20106C15.6205 7.06428 15.5133 6.84202 15.5133 6.60267C15.5133 6.33481 15.6312 6.11255 15.8617 5.93589C16.0975 5.75922 16.3923 5.66803 16.7407 5.66803C17.2231 5.66234 17.5983 5.77631 17.8663 6.00427C17.8663 6.3918 17.7216 6.72804 17.4375 7.01299C17.1803 7.28654 16.8319 7.44041 16.4674 7.44041C16.2262 7.44611 15.9903 7.36063 15.7974 7.20106ZM20.5454 10.2501L23.4286 3.21184H22.4908L21.1564 6.72241H21.1403L19.7737 3.21184H18.8359L20.7276 7.78812L19.6558 10.2501H20.5454Z" fill="#3C4043"/>
</g>
<g id="G">
<path id="Blue" d="M8.13456 4.57955C8.13456 4.3003 8.11312 4.02105 8.07025 3.7475H4.4314V5.32611H6.5161C6.43035 5.83332 6.15168 6.28924 5.74439 6.57419V7.60001H6.98771C7.71655 6.88763 8.13456 5.83332 8.13456 4.57955Z" fill="#4285F4"/>
<path id="Green" d="M4.43152 8.59159C5.47119 8.59159 6.35009 8.22685 6.98783 7.59996L5.74451 6.57415C5.39617 6.8249 4.95136 6.96738 4.43152 6.96738C3.424 6.96738 2.5719 6.24361 2.26643 5.27478H0.985596V6.33479C1.63941 7.71964 2.97384 8.59159 4.43152 8.59159Z" fill="#34A853"/>
<path id="Yellow" d="M2.26663 5.27481C2.10583 4.7676 2.10583 4.2148 2.26663 3.70189V2.64758H0.985593C0.433513 3.80448 0.433513 5.17223 0.985593 6.32912L2.26663 5.27481Z" fill="#FBBC04"/>
<path id="Red" d="M4.43152 2.00928C4.98351 1.99789 5.51407 2.22015 5.91065 2.62477L7.01463 1.45078C6.31258 0.755508 5.39081 0.373677 4.43152 0.385075C2.97384 0.385075 1.63941 1.26272 0.985596 2.64757L2.26643 3.70758C2.5719 2.73305 3.424 2.00928 4.43152 2.00928Z" fill="#EA4335"/>
</g>
</g>
</svg>
