<svg width="59" height="59" viewBox="0 0 59 59" fill="none" xmlns="http://www.w3.org/2000/svg">
<rect x="0.5" y="0.5" width="57.5002" height="57.5" rx="28.75" fill="#C4FF67"/>
<rect x="0.5" y="0.5" width="57.5002" height="57.5" rx="28.75" stroke="#C4FF67"/>
<path fill-rule="evenodd" clip-rule="evenodd" d="M24.472 16.0001C24.8862 16.0001 25.222 16.3359 25.222 16.7501V17.6669H26.1389C26.5531 17.6669 26.8889 18.0027 26.8889 18.4169C26.8889 18.8311 26.5531 19.1669 26.1389 19.1669H25.222V20.0835C25.222 20.4977 24.8862 20.8335 24.472 20.8335C24.0578 20.8335 23.722 20.4977 23.722 20.0835V19.1669H22.8055C22.3913 19.1669 22.0555 18.8311 22.0555 18.4169C22.0555 18.0027 22.3913 17.6669 22.8055 17.6669H23.722V16.7501C23.722 16.3359 24.0578 16.0001 24.472 16.0001ZM34.0718 16.6927C34.9325 17.2742 35.4144 18.193 35.2754 19.2632C35.172 21.3404 34.6496 23.3371 33.7752 25.1111H39.1946C40.7199 25.1111 41.9446 26.3358 41.9446 27.8611C41.9446 28.524 41.7133 29.1301 41.3266 29.6035C42.0375 30.0993 42.5002 30.9233 42.5002 31.861C42.5002 32.9273 41.9018 33.8466 41.0205 34.3034C41.3234 34.7455 41.5002 35.2817 41.5002 35.8612C41.5002 36.9631 40.8611 37.9081 39.9313 38.3479C40.2504 38.8629 40.3898 39.5019 40.2704 40.1923C40.0975 41.6224 38.8324 42.5001 37.528 42.5001H30.3057L30.268 42.5001C29.8551 42.5003 29.2381 42.5005 28.7093 42.374L22.9091 41.389H16.75C16.3358 41.389 16 41.0532 16 40.639C16 40.2248 16.3358 39.889 16.75 39.889H22.9723C23.0144 39.889 23.0564 39.8926 23.0979 39.8996L28.9868 40.8996C29.0057 40.9028 29.0245 40.9068 29.0431 40.9114C29.3805 40.9958 29.8368 41.0001 30.3057 41.0001H37.528C38.2157 41.0001 38.721 40.5552 38.7826 40.0006C38.7845 39.9834 38.787 39.9663 38.7901 39.9493C38.9242 39.2118 38.4185 38.6112 37.6391 38.6112C37.2249 38.6112 36.8891 38.2754 36.8891 37.8612C36.8891 37.447 37.2249 37.1112 37.6391 37.1112H38.4169L38.4251 37.1112H38.7502C39.4471 37.1112 40.0002 36.5581 40.0002 35.8612C40.0002 35.1643 39.4471 34.6112 38.7502 34.6112H38.4169C38.0027 34.6112 37.6669 34.2754 37.6669 33.8612V33.861C37.6669 33.4468 38.0027 33.111 38.4169 33.111H39.7502C40.4471 33.111 41.0002 32.5579 41.0002 31.861C41.0002 31.1641 40.4471 30.611 39.7502 30.611H39.2242L39.1946 30.6111H38.4168C38.0026 30.6111 37.6668 30.2753 37.6668 29.8611C37.6668 29.7389 37.696 29.6236 37.7478 29.5216C37.8717 29.2779 38.1248 29.111 38.4169 29.111H39.2147C39.9021 29.1004 40.4446 28.5513 40.4446 27.8611C40.4446 27.1642 39.8915 26.6111 39.1946 26.6111H32.5278C32.2679 26.6111 32.0265 26.4765 31.8899 26.2554C31.7532 26.0343 31.7408 25.7582 31.857 25.5257L31.9681 25.3035C31.9757 25.2882 31.9839 25.2733 31.9925 25.2586C33.0404 23.4771 33.6732 21.3736 33.7787 19.1587C33.7798 19.1351 33.7821 19.1116 33.7854 19.0883C33.8515 18.6258 33.675 18.2309 33.2229 17.9295C33.2114 17.9218 33.2001 17.9138 33.189 17.9054C32.9969 17.7614 32.815 17.724 32.3416 17.8186C31.9913 17.8887 31.7523 18.0891 31.6431 18.3075C31.6369 18.3199 31.6303 18.3322 31.6234 18.3442C31.0709 19.3112 30.5617 20.3462 30.04 21.4183L29.9274 21.6499C29.4447 22.6426 28.9483 23.6634 28.4066 24.6539C27.2391 26.7891 25.824 28.8563 23.7446 30.358C23.6168 30.4503 23.4632 30.5 23.3055 30.5H16.75C16.3358 30.5 16 30.1642 16 29.75C16 29.3358 16.3358 29 16.75 29H23.0582C24.7705 27.7015 26.0044 25.9205 27.0906 23.9342C27.6142 22.9766 28.0955 21.9869 28.5815 20.9876L28.5815 20.9875L28.6912 20.7619C29.2086 19.6988 29.7349 18.6274 30.3117 17.6164C30.6499 16.9568 31.2943 16.4984 32.0474 16.3478L32.1945 17.083L32.0474 16.3478C32.6799 16.2213 33.3806 16.1834 34.0718 16.6927ZM18.4164 21.0111C18.8307 21.0111 19.1664 21.3469 19.1664 21.7611V22.6779H20.0834C20.4976 22.6779 20.8334 23.0136 20.8334 23.4279C20.8334 23.8421 20.4976 24.1779 20.0834 24.1779H19.1664V25.0945C19.1664 25.5087 18.8307 25.8445 18.4164 25.8445C18.0022 25.8445 17.6664 25.5087 17.6664 25.0945V24.1779H16.75C16.3358 24.1779 16 23.8421 16 23.4279C16 23.0136 16.3358 22.6779 16.75 22.6779H17.6664V21.7611C17.6664 21.3469 18.0022 21.0111 18.4164 21.0111ZM40.0837 18.2335C40.498 18.2335 40.8337 18.5693 40.8337 18.9835V19.9H41.7502C42.1645 19.9 42.5002 20.2358 42.5002 20.65C42.5002 21.0642 42.1645 21.4 41.7502 21.4H40.8337V22.3169C40.8337 22.7311 40.498 23.0669 40.0837 23.0669C39.6695 23.0669 39.3337 22.7311 39.3337 22.3169V21.4H38.4169C38.0027 21.4 37.6669 21.0642 37.6669 20.65C37.6669 20.2358 38.0027 19.9 38.4169 19.9H39.3337V18.9835C39.3337 18.5693 39.6695 18.2335 40.0837 18.2335Z" fill="#28352C"/>
</svg>
