<svg width="138" height="46" viewBox="0 0 138 46" fill="none" xmlns="http://www.w3.org/2000/svg">
<g id="icon-chegg">
<path id="Vector" d="M59.7087 16.5985C58.5136 15.5096 56.7934 14.8944 54.5759 15.0637C53.4042 15.1534 52.2747 15.7506 51.8204 16.2354V9L47.2454 9.78531V30.9048H51.8243V23.0919C51.7358 19.976 52.9216 19.2261 54.7052 19.2261C56.4515 19.2261 57.4159 20.3886 57.4159 22.8819V30.8907H61.8036V22.1329C61.8049 19.563 61.0455 17.8165 59.7087 16.5985ZM39.7472 26.9909C40.995 26.9344 42.2042 26.5446 43.2466 25.8634L44.0228 25.3594L46.0291 28.7571L45.3525 29.2169C43.51 30.4681 41.3257 31.1362 39.0901 31.1327C37.3526 31.1318 35.6398 30.7276 34.0896 29.9527C32.539 29.1784 31.1946 28.0549 30.1638 26.6728C29.133 25.2912 28.4454 23.6895 28.1553 21.9968C27.8657 20.3046 27.9822 18.5681 28.4954 16.9284C29.0086 15.2886 29.9044 13.7906 31.1105 12.5551C32.3167 11.3196 33.7996 10.3812 35.4397 9.8155C37.0798 9.24981 38.8315 9.07219 40.554 9.2975C42.2764 9.52281 43.9209 10.1445 45.3556 11.1123L46.0291 11.5699L44.0228 14.9741L43.2466 14.4701C42.2042 13.7889 40.995 13.3991 39.7472 13.3426C38.499 13.2862 37.2587 13.5649 36.1584 14.1494C35.0576 14.7339 34.1379 15.6019 33.4972 16.6615C32.856 17.7211 32.5173 18.9321 32.5173 20.1668C32.5173 21.4009 32.856 22.6124 33.4972 23.672C34.1379 24.7316 35.0576 25.5996 36.1584 26.1841C37.2587 26.7682 38.499 27.0473 39.7472 26.9909ZM107.36 16.1842L107.335 16.2949L107.248 16.2222C106.227 15.3875 104.896 14.9824 103.178 14.9824C98.8777 14.9824 95.3796 18.5454 95.3796 22.9256C95.3796 27.3054 98.8777 30.8689 103.178 30.8689C104.247 30.8728 105.304 30.6501 106.279 30.2161L106.424 30.1518L106.373 30.301C105.83 31.8839 104.371 32.9054 102.564 32.9627H102.343C101.306 32.989 100.298 32.6241 99.5237 31.9425L99.3196 31.7692L96.8258 34.5662L97.0051 34.7416C98.5921 36.2934 100.996 36.9991 102.559 36.9991C107.45 36.9991 111 33.5013 111 28.6818V15.0226H107.609L107.36 16.1842ZM103.534 26.7205C101.541 26.7205 99.9209 25.0164 99.9209 22.9226C99.9209 20.8282 101.541 19.1242 103.534 19.1242C105.527 19.1242 107.149 20.8282 107.149 22.9226C107.149 25.0164 105.528 26.7205 103.534 26.7205ZM90.8844 16.1842L90.8587 16.3001L90.7662 16.2244C89.7455 15.3906 88.4189 14.9854 86.6996 14.9854C82.4 14.9854 78.9029 18.5476 78.9029 22.9256C78.9029 27.3032 82.4 30.8658 86.6996 30.8658C87.7671 30.8693 88.8236 30.6475 89.7973 30.2144L89.9505 30.1457L89.8974 30.3019C89.3568 31.8891 87.8986 32.9116 86.092 32.9697H85.8729C84.8345 32.9964 83.8254 32.6316 83.0501 31.9486L82.8512 31.7771L80.361 34.5701L80.5385 34.7434C82.1246 36.2943 84.5277 37 86.0903 37C90.9791 37 94.5277 33.5035 94.5277 28.6857V15.0257H91.1346L90.8844 16.1842ZM87.0604 26.7236C85.0657 26.7236 83.4428 25.0186 83.4428 22.9226C83.4428 20.8261 85.0657 19.1211 87.0604 19.1211C89.0557 19.1211 90.678 20.8261 90.678 22.9226C90.678 25.0186 89.0557 26.7236 87.0604 26.7236ZM62.6763 23.0774C62.6763 18.5099 66.053 14.9325 70.3636 14.9325C74.6569 14.9325 78.0182 18.5099 78.0182 23.0766C78.0164 23.6584 77.9765 24.2399 77.8999 24.8169H67.2765L67.3225 24.9701C67.5377 25.6687 67.9942 26.2703 68.6124 26.6702C69.2159 27.0679 69.9168 27.2984 70.6412 27.3378C72.2809 27.4262 73.5181 26.9664 74.5188 25.8888L77.2344 27.739C76.87 28.2986 74.7446 31.2224 70.6452 31.2224C66.2479 31.2224 62.6763 27.5684 62.6763 23.0774ZM66.8859 21.7426L66.8726 21.8739H74.1588L74.1517 21.7479C74.029 19.5407 72.1627 18.3498 70.4699 18.3498C69.5932 18.3586 68.7514 18.6911 68.1102 19.2826C67.408 19.9244 66.9714 20.8011 66.8859 21.7426Z" fill="#B1B2B4"/>
</g>
</svg>
