<svg width="61" height="61" viewBox="0 0 61 61" fill="none" xmlns="http://www.w3.org/2000/svg">
<rect x="0.5" y="0.5" width="60" height="60" rx="29.5" fill="#C4FF67"/>
<rect x="0.5" y="0.5" width="60" height="60" rx="29.5" stroke="#C4FF67"/>
<path fill-rule="evenodd" clip-rule="evenodd" d="M32.3921 17.8803C32.1297 17.7207 31.8245 17.646 31.5179 17.6665L31.5179 17.6665C31.2113 17.6871 30.9188 17.8018 30.6801 17.9948C30.6746 17.9993 30.6692 18.0038 30.6639 18.0084C29.1862 19.2862 27.9803 20.8477 27.1175 22.6004C26.2548 24.3531 25.7529 26.2613 25.6417 28.2117C25.641 28.2238 25.6406 28.2359 25.6406 28.2481C25.6406 29.5443 26.1556 30.7876 27.0722 31.7042C27.9888 32.6209 29.2321 33.1358 30.5284 33.1358C31.8247 33.1358 33.0679 32.6209 33.9846 31.7042C34.9011 30.7876 35.4161 29.5443 35.4161 28.2481C35.4161 26.8349 34.7559 25.7609 34.1658 24.8011L34.1658 24.801C34.0359 24.5897 33.9094 24.3839 33.794 24.1812C33.1426 23.0364 32.6156 21.7155 33.0774 19.4534C33.1393 19.1524 33.1064 18.8399 32.9839 18.5585C32.8613 18.277 32.6547 18.0401 32.3922 17.8804L32.3921 17.8803ZM31.6033 18.9431C31.6467 18.9402 31.6898 18.9507 31.7271 18.9733L31.7273 18.9734C31.7643 18.996 31.7935 19.0295 31.8109 19.0694C31.8283 19.1094 31.8329 19.1536 31.8242 19.1959L31.824 19.1969C31.2846 21.8384 31.9203 23.4752 32.682 24.814C32.8407 25.0928 32.9954 25.3477 33.1412 25.5878C33.7065 26.5191 34.1367 27.2278 34.1367 28.2481C34.1367 29.205 33.7565 30.1229 33.0799 30.7995C32.4031 31.4763 31.4854 31.8564 30.5284 31.8564C29.5714 31.8564 28.6536 31.4763 27.9769 30.7995L27.9769 30.7995C27.3044 30.1271 26.9247 29.2163 26.9201 28.2658C27.0237 26.493 27.4811 24.7588 28.2654 23.1654C29.0504 21.5706 30.1469 20.1493 31.4902 18.9853C31.5231 18.9604 31.5624 18.9458 31.6033 18.9431L31.6033 18.9431ZM17.7842 28.4579C17.4309 28.4579 17.1445 28.7443 17.1445 29.0976C17.1445 29.4509 17.4309 29.7373 17.7842 29.7373H23.1193C23.2693 31.4752 24.0269 33.113 25.2699 34.3561L25.7223 33.9037L25.2699 34.3561C26.6645 35.7506 28.556 36.5342 30.5284 36.5342C32.5007 36.5342 34.3922 35.7506 35.7869 34.3561L35.7869 34.356C37.0299 33.113 37.7874 31.4752 37.9374 29.7373H43.2159C43.5692 29.7373 43.8556 29.4509 43.8556 29.0976C43.8556 28.7443 43.5692 28.4579 43.2159 28.4579H37.3252C36.9719 28.4579 36.6855 28.7443 36.6855 29.0976C36.6855 30.7306 36.0369 32.2967 34.8822 33.4514C33.7274 34.6061 32.1613 35.2548 30.5284 35.2548C28.8954 35.2548 27.3293 34.6061 26.1746 33.4514C25.0199 32.2967 24.3712 30.7306 24.3712 29.0976C24.3712 28.7443 24.0848 28.4579 23.7315 28.4579H17.7842ZM18.6338 40.7773C19.2218 40.7773 19.6984 41.2539 19.6984 41.8418C19.6984 42.4297 19.2218 42.9063 18.6338 42.9063C18.0459 42.9063 17.5693 42.4297 17.5693 41.8418C17.5693 41.2539 18.0459 40.7773 18.6338 40.7773ZM26.2803 40.7773C26.8683 40.7773 27.3448 41.2539 27.3448 41.8418C27.3448 42.4297 26.8683 42.9063 26.2803 42.9063C25.6924 42.9063 25.2158 42.4297 25.2158 41.8418C25.2158 41.2539 25.6924 40.7773 26.2803 40.7773ZM34.7764 40.7773C35.3643 40.7773 35.8409 41.2539 35.8409 41.8418C35.8409 42.4297 35.3643 42.9063 34.7764 42.9063C34.1885 42.9063 33.7119 42.4297 33.7119 41.8418C33.7119 41.2539 34.1885 40.7773 34.7764 40.7773ZM42.4229 40.7773C43.0108 40.7773 43.4874 41.2539 43.4874 41.8418C43.4874 42.4297 43.0108 42.9063 42.4229 42.9063C41.835 42.9063 41.3584 42.4297 41.3584 41.8418C41.3584 41.2539 41.835 40.7773 42.4229 40.7773ZM42.4229 32.0679C43.1286 32.0679 43.7007 32.64 43.7007 33.3457C43.7007 34.0514 43.1286 34.6234 42.4229 34.6234C41.7172 34.6234 41.1452 34.0514 41.1452 33.3457C41.1452 32.64 41.7172 32.0679 42.4229 32.0679ZM39.0245 36.316C39.7301 36.316 40.3022 36.8881 40.3022 37.5937C40.3022 38.2994 39.7301 38.8715 39.0245 38.8715C38.3188 38.8715 37.7467 38.2994 37.7467 37.5937C37.7467 36.8881 38.3188 36.316 39.0245 36.316ZM20.7545 37.5937C20.7545 38.2994 21.3266 38.8715 22.0323 38.8715C22.738 38.8715 23.31 38.2994 23.31 37.5937C23.31 36.8881 22.738 36.316 22.0323 36.316C21.3266 36.316 20.7545 36.8881 20.7545 37.5937ZM17.3561 33.3457C17.3561 34.0514 17.9282 34.6234 18.6338 34.6234C19.3395 34.6234 19.9116 34.0513 19.9116 33.3457C19.9116 32.64 19.3395 32.0679 18.6338 32.0679C17.9282 32.0679 17.3561 32.64 17.3561 33.3457Z" fill="#28352C"/>
</svg>
