<svg width="59" height="59" viewBox="0 0 59 59" fill="none" xmlns="http://www.w3.org/2000/svg">
<rect x="0.5" y="0.5" width="57.4998" height="57.5001" rx="28.7499" fill="#C4FF67"/>
<rect x="0.5" y="0.5" width="57.4998" height="57.5001" rx="28.7499" stroke="#C4FF67"/>
<path fill-rule="evenodd" clip-rule="evenodd" d="M34.4152 20.3679C34.3476 20.1821 34.085 20.1823 34.0175 20.3679L32.4184 24.7656C32.3425 24.9741 32.1783 25.1383 31.9698 25.2141L27.5721 26.8133C27.5721 26.8133 27.5721 26.8133 27.5721 26.8133C27.3864 26.8808 27.3864 27.1434 27.5721 27.2109L31.9698 28.8101C32.1783 28.8859 32.3425 29.0501 32.4184 29.2586L34.0175 33.6563C34.0175 33.6563 34.0175 33.6563 34.0175 33.6563C34.085 33.8419 34.3476 33.842 34.4152 33.6563C34.4152 33.6563 34.4152 33.6563 34.4152 33.6563L36.0142 29.2586C36.09 29.0501 36.2543 28.8859 36.4628 28.8101L40.8605 27.2109L40.8605 27.2109C41.0462 27.1434 41.0462 26.8808 40.8605 26.8133L40.8605 26.8133L36.4628 25.2141C36.2543 25.1383 36.09 24.9741 36.0142 24.7656L34.4152 20.3679C34.4152 20.3679 34.4152 20.3679 34.4152 20.3679ZM32.6078 19.8553C33.1541 18.353 35.2786 18.3532 35.8249 19.8552L35.8249 19.8553L37.3043 23.9241L41.373 25.4036C41.3731 25.4036 41.3731 25.4036 41.3731 25.4036C42.8754 25.9499 42.8754 28.0744 41.373 28.6206L37.3043 30.1001L35.8249 34.1689L35.8249 34.169C35.2785 35.6711 33.1541 35.6711 32.6078 34.1689L32.6078 34.1689L31.1283 30.1001L27.0595 28.6206L27.3158 27.9158L27.0595 28.6206C25.5573 28.0743 25.5573 25.9499 27.0595 25.4036L27.0595 25.4036L31.1283 23.9241L32.6078 19.8553L33.3127 20.1116L32.6078 19.8553Z" fill="#28352C"/>
<path fill-rule="evenodd" clip-rule="evenodd" d="M22.9174 30.7022C22.8498 30.5166 22.5873 30.5166 22.5198 30.7022L21.3379 33.9523C21.2621 34.1608 21.0979 34.3251 20.8894 34.4009L17.6392 35.5827L17.6392 35.5828C17.4535 35.6503 17.4537 35.9128 17.6391 35.9802L17.6393 35.9803L20.8894 37.1622C21.0979 37.238 21.2621 37.4022 21.3379 37.6107L22.5198 40.8609C22.5198 40.8609 22.5198 40.8609 22.5198 40.8609C22.5873 41.0465 22.8498 41.0465 22.9174 40.8609C22.9174 40.8609 22.9174 40.8609 22.9174 40.8609L24.0992 37.6107C24.175 37.4022 24.3393 37.238 24.5477 37.1622L27.7979 35.9803L27.798 35.9802C27.9834 35.9128 27.9836 35.6503 27.7979 35.5828L27.7979 35.5827L24.5478 34.4009C24.3393 34.3251 24.175 34.1608 24.0992 33.9523L22.9174 30.7022ZM21.1101 30.1896C21.6563 28.6874 23.7808 28.6874 24.327 30.1896L25.3893 33.1108L28.3104 34.173C28.3105 34.173 28.3105 34.1731 28.3105 34.1731C29.8125 34.7192 29.8128 36.8438 28.3105 37.39C28.3105 37.39 28.3104 37.39 28.3104 37.39L25.3893 38.4523L24.327 41.3735L24.327 41.3736C23.7808 42.8756 21.6563 42.8756 21.1101 41.3736L21.1101 41.3735L20.0478 38.4523L17.1267 37.39C17.1267 37.39 17.1267 37.39 17.1266 37.39C15.6243 36.8438 15.6246 34.7192 17.1267 34.173L20.0478 33.1108L21.1101 30.1896Z" fill="#28352C"/>
<path fill-rule="evenodd" clip-rule="evenodd" d="M21.2688 17.6392C21.2013 17.4536 20.9387 17.4536 20.8712 17.6392L20.129 19.6804C20.0532 19.8889 19.8889 20.0532 19.6804 20.129L17.6393 20.8712C17.6392 20.8712 17.6392 20.8712 17.6392 20.8712C17.4536 20.9387 17.4536 21.2013 17.6392 21.2688C17.6392 21.2688 17.6392 21.2688 17.6392 21.2688L19.6804 22.0111C19.8889 22.0869 20.0532 22.2511 20.129 22.4596L20.8712 24.5008C20.8712 24.5008 20.8712 24.5008 20.8712 24.5008C20.9387 24.6865 21.2013 24.6865 21.2688 24.5008L21.9737 24.7571L21.2688 24.5008L22.0111 22.4596C22.0869 22.2511 22.2511 22.0869 22.4596 22.0111L24.5008 21.2688C24.5008 21.2688 24.5008 21.2688 24.5008 21.2688C24.6865 21.2013 24.6865 20.9387 24.5008 20.8712L22.4596 20.129C22.2511 20.0532 22.0869 19.8889 22.0111 19.6804L21.2688 17.6393C21.2688 17.6392 21.2688 17.6392 21.2688 17.6392ZM19.4615 17.1266C20.0078 15.6245 22.1323 15.6245 22.6785 17.1266L22.6785 17.1266L23.3011 18.8389L25.0134 19.4615L24.7707 20.1289L25.0134 19.4615C26.5156 20.0078 26.5156 22.1323 25.0134 22.6785L24.7571 21.9737L25.0134 22.6785L23.3011 23.3011L22.6785 25.0134L22.1146 24.8084L22.6785 25.0134C22.1323 26.5156 20.0078 26.5156 19.4615 25.0134L20.1664 24.7571L19.4615 25.0134L18.8389 23.3011L17.1266 22.6785L17.1266 22.6785C15.6245 22.1323 15.6245 20.0078 17.1266 19.4615L17.1266 19.4615L18.8389 18.8389L19.4615 17.1266L19.4615 17.1266Z" fill="#28352C"/>
</svg>
