<svg width="128" height="45" viewBox="0 0 128 45" fill="none" xmlns="http://www.w3.org/2000/svg">
<g id="icon-cvs_health">
<path id="Union" fill-rule="evenodd" clip-rule="evenodd" d="M37.4056 23.9648H33.2575C33.2342 24.2598 33.169 24.5504 33.0636 24.8282C32.9027 25.2594 32.586 25.6195 32.172 25.8418C31.6267 26.0836 31.0192 26.1621 30.4275 26.0671C30.1456 26.0368 29.8731 25.9513 29.6265 25.8157C29.3799 25.6802 29.1644 25.4975 28.9931 25.2787C28.5675 24.6803 28.3255 23.9775 28.2952 23.2515C28.2047 22.5261 28.2309 21.7916 28.3728 21.0741C28.4656 20.4565 28.7495 19.8806 29.1869 19.4222C29.5822 19.0539 30.1116 18.8515 30.6601 18.8591C30.9698 18.823 31.2838 18.8476 31.5835 18.9315C31.8832 19.0153 32.1625 19.1567 32.4046 19.3472C32.6211 19.5456 32.7944 19.7841 32.9143 20.0484C33.0341 20.3128 33.0981 20.5977 33.1024 20.8864H37.2893C37.2502 20.1905 37.093 19.5056 36.8241 18.8591C36.4361 17.8791 35.7283 17.0486 34.8082 16.494C33.6775 15.8581 32.394 15.5214 31.0865 15.5179H30.505C29.2369 15.5037 27.9894 15.8284 26.8996 16.4565C25.9268 16.9973 25.1436 17.8081 24.6511 18.784C24.008 20.0266 23.7266 21.4152 23.837 22.801C23.8538 24.1178 24.2138 25.4091 24.8837 26.5551C25.4529 27.489 26.2872 28.2448 27.2873 28.7325C28.3047 29.2057 29.4153 29.4618 30.5438 29.4833H31.2028C32.0331 29.4589 32.8554 29.3198 33.6451 29.0704C34.6907 28.7201 35.6073 28.0805 36.2813 27.2309C36.9627 26.2647 37.3521 25.1336 37.4056 23.9648ZM59.5417 21.7498C60.0613 22.0588 60.5099 22.4676 60.8598 22.9511C61.1953 23.4563 61.3829 24.0402 61.4026 24.6405C61.4477 25.3733 61.3149 26.1062 61.0149 26.7804C60.7693 27.3187 60.3977 27.7942 59.9294 28.1694C59.0206 28.8169 57.9502 29.2186 56.828 29.3332C56.795 29.3361 56.7623 29.339 56.7297 29.3419C56.3414 29.3763 55.9809 29.4083 55.5875 29.4083H54.9672C53.9539 29.3973 52.9527 29.1932 52.0209 28.8076C51.1063 28.4263 50.3444 27.7675 49.8499 26.9305C49.5101 26.3132 49.2993 25.6371 49.2296 24.9408H53.494C53.5555 25.2599 53.7026 25.5577 53.9205 25.8043C54.1049 25.9994 54.3498 26.1311 54.6183 26.1797C54.9737 26.2606 55.3401 26.286 55.7038 26.2548C56.0684 26.2431 56.4259 26.1534 56.7505 25.992C56.8516 25.9289 56.9381 25.8464 57.0048 25.7495C57.0715 25.6526 57.1169 25.5435 57.1382 25.4289C57.1651 25.3095 57.1615 25.1855 57.1277 25.0677C57.094 24.95 57.031 24.842 56.9443 24.7531C56.7615 24.5831 56.5332 24.4661 56.2853 24.4152L55.0447 24.0774C54.2694 23.8897 53.5328 23.702 52.7575 23.4392C52.2057 23.2817 51.6729 23.0678 51.168 22.801C50.6164 22.4672 50.1626 22.0018 49.8499 21.4495C49.5531 20.8264 49.4073 20.1458 49.4235 19.4598C49.4532 18.8306 49.6253 18.2155 49.9274 17.6578C50.2523 17.1243 50.7042 16.6737 51.2455 16.3438C52.3724 15.7845 53.6235 15.5009 54.8897 15.5179H55.5099C56.7658 15.5037 58.0008 15.8287 59.0765 16.4565C59.6179 16.7864 60.0698 17.2369 60.3946 17.7704C60.7338 18.3611 60.9449 19.0126 61.0149 19.685H56.8668C56.8264 19.4003 56.6901 19.1364 56.4791 18.9342C56.1709 18.6949 55.7887 18.5627 55.3936 18.5588C55.03 18.5276 54.6635 18.553 54.3082 18.6339C54.1828 18.6649 54.0675 18.7258 53.9727 18.8111C53.8779 18.8963 53.8066 19.0032 53.7654 19.1219C53.7198 19.2384 53.703 19.3636 53.7165 19.4875C53.73 19.6114 53.7733 19.7305 53.8429 19.8352C53.9862 20.0216 54.1917 20.1543 54.4245 20.2106C54.6829 20.3107 54.9414 20.3775 55.1998 20.4442C55.329 20.4776 55.4583 20.5109 55.5875 20.5485C55.9945 20.6611 56.4016 20.755 56.8086 20.8488C57.2157 20.9427 57.6228 21.0365 58.0298 21.1491C58.5578 21.2872 59.0658 21.489 59.5417 21.7498ZM18.1 15.6591C18.3464 15.7558 18.5703 15.8993 18.7585 16.0811L21.666 18.8967C21.8624 19.0884 22.0156 19.3175 22.1157 19.5695C22.2158 19.8216 22.2607 20.091 22.2475 20.3608C22.2184 20.8401 22.012 21.2932 21.666 21.6372C20.3092 22.9324 18.962 24.2369 17.6148 25.5415C16.2677 26.8461 14.9205 28.1506 13.5637 29.4458C12.2068 28.1506 10.8596 26.8461 9.51246 25.5415C8.1653 24.2369 6.81813 22.9324 5.46127 21.6372C5.1231 21.3032 4.91721 20.8646 4.87976 20.3983V20.098C4.91721 19.6317 5.1231 19.1931 5.46127 18.8591C6.10595 18.2598 6.73347 17.6439 7.36665 17.0224C7.68538 16.7095 8.00555 16.3953 8.33006 16.0811C8.70104 15.7234 9.20223 15.5212 9.72568 15.5179C10.2742 15.5104 10.8036 15.7127 11.1988 16.0811L13.5637 18.3711L15.9285 16.0811C16.3035 15.7294 16.8021 15.5282 17.3241 15.5179C17.5899 15.5144 17.8537 15.5624 18.1 15.6591ZM44.3643 20.1167C44.7714 18.6996 45.1784 17.2824 45.5855 15.8558H49.8887C48.3769 20.2477 46.8263 24.6396 45.2758 29.0316L45.2754 29.0328H40.8946C39.4603 24.678 37.9483 20.2857 36.3976 15.8558H40.8559C41.2436 17.2824 41.6215 18.6996 41.9995 20.1168C42.3775 21.5339 42.7555 22.9511 43.1431 24.3777C43.5502 22.9511 43.9573 21.5339 44.3643 20.1167ZM75.4751 15.8559H71.1331V17.0947H72.49V21.3745H65.6282V17.0947H66.985V15.8559H62.6431V17.0947H63.9999V27.8316H62.6431V29.0704H66.985V27.8316H65.6282V22.5758H72.49V27.8316H71.1331V29.0704H75.4751V27.8316H74.1182V17.0947H75.4751V15.8559ZM101.1 26.8555C101.118 27.1434 101.197 27.4247 101.333 27.6814C101.409 27.7678 101.504 27.8363 101.612 27.8818C101.719 27.9274 101.836 27.9487 101.953 27.9442C102.214 27.9565 102.475 27.9312 102.729 27.8691V29.0704C102.264 29.2074 101.772 29.2332 101.294 29.1455C100.892 29.0847 100.516 28.9156 100.209 28.6575C99.9162 28.3724 99.726 28.0039 99.6659 27.6063C99.5821 27.1102 99.5561 26.6065 99.5884 26.1047V17.0572H98.3091C98.2703 16.6818 98.2703 16.2688 98.2703 15.8559H101.1V26.8555ZM118.119 23.1764C118.158 23.5894 118.158 24.0024 118.158 24.3778V27.8691H119.437V29.0704H115.328V27.8691H116.607V23.6645C116.627 22.948 116.395 22.2462 115.948 21.6748C115.512 21.228 114.915 20.9594 114.281 20.924C113.611 20.8586 112.936 20.9894 112.343 21.2994C111.922 21.5746 111.597 21.9674 111.412 22.4256C111.27 22.8365 111.204 23.2688 111.219 23.702V27.8316H112.498V29.0329H108.427V27.8316H109.707V17.0197H108.427V15.8559H111.219V20.9615C111.667 20.4047 112.295 20.0085 113.002 19.8353C113.712 19.6536 114.457 19.6407 115.173 19.7977C115.903 19.9496 116.567 20.3168 117.072 20.8489C117.667 21.4979 118.033 22.3129 118.119 23.1764ZM104.124 17.6203H105.675V19.9479H107.574V21.1492H105.675V26.7429C105.66 27.0422 105.727 27.3399 105.869 27.6063C105.943 27.6977 106.037 27.7721 106.144 27.824C106.251 27.8759 106.369 27.9042 106.489 27.9067C106.851 27.9317 107.215 27.9191 107.574 27.8691V29.0704C107.083 29.2074 106.566 29.2331 106.063 29.1455C105.552 29.104 105.072 28.8916 104.706 28.5449C104.202 28.0568 104.124 27.306 104.124 26.6303V21.1117H102.651V19.9103H104.124V17.6203ZM85.7484 24.9784C85.787 24.363 85.748 23.7452 85.6321 23.1389C85.4891 22.4548 85.1838 21.8122 84.7405 21.2618C84.0916 20.498 83.1858 19.9797 82.1818 19.7977C81.3081 19.6349 80.408 19.6605 79.5457 19.8728C78.4777 20.1155 77.5475 20.7475 76.9482 21.6372C76.1919 22.77 75.9143 24.141 76.1729 25.4665C76.3554 26.5705 76.9482 27.5718 77.8399 28.2821C78.7937 28.9889 79.9741 29.3478 81.1739 29.2957C81.9528 29.2728 82.7184 29.0938 83.4224 28.7701C84.3789 28.3143 85.1353 27.5419 85.5546 26.5927H84.0039C83.8203 26.9148 83.5709 27.1974 83.271 27.4232C82.9711 27.6491 82.6269 27.8136 82.2594 27.9067C81.5789 28.0999 80.8593 28.1257 80.1659 27.9817C79.5027 27.8685 78.9001 27.537 78.4602 27.0432C77.9608 26.4609 77.6745 25.7349 77.6461 24.9784H85.7484ZM83.3836 21.9376C83.83 22.4741 84.1001 23.128 84.159 23.8147H77.5685C77.6372 23.1053 77.9358 22.4352 78.4214 21.9C78.9001 21.4216 79.5256 21.1056 80.2047 20.999C80.8476 20.8721 81.5127 20.8979 82.1431 21.0741C82.6228 21.2601 83.0486 21.5565 83.3836 21.9376ZM97.7663 19.9479H94.9751V21.2994C94.3958 20.5851 93.5934 20.0715 92.6878 19.8353C91.5665 19.5608 90.3801 19.6944 89.3538 20.2107C88.4639 20.6515 87.7636 21.3829 87.3767 22.2755C86.8426 23.3497 86.7058 24.569 86.989 25.7293C87.2314 26.8374 87.8783 27.8237 88.8111 28.5073C89.3486 28.88 89.9625 29.1365 90.6112 29.2596C91.26 29.3826 91.9285 29.3693 92.5715 29.2206C93.5288 29.0064 94.3789 28.4753 94.9751 27.719V29.0704H97.7663V27.8691H96.487V21.1492H97.7663V19.9479ZM94.1957 22.064C94.4894 22.4259 94.702 22.8432 94.82 23.2891C95.0858 24.247 95.0176 25.2631 94.6262 26.1798C94.3858 26.7212 93.997 27.1886 93.5019 27.5312C93.0171 27.855 92.4499 28.0437 91.862 28.0768C91.2741 28.1099 90.6882 27.9861 90.1679 27.719C89.7396 27.4904 89.3683 27.1735 89.0803 26.7908C88.7923 26.4081 88.5945 25.9688 88.5009 25.504C88.3723 24.9554 88.3575 24.3875 88.4574 23.8333C88.5572 23.279 88.7696 22.7495 89.0824 22.2755C89.3315 21.9072 89.6629 21.5979 90.0521 21.3705C90.4413 21.143 90.8784 21.0033 91.3309 20.9615C91.9354 20.9016 92.5459 20.9787 93.1142 21.1867C93.5337 21.4033 93.902 21.702 94.1957 22.064ZM123.12 27.9442V27.6439C123.058 27.3361 122.911 27.0506 122.694 26.818C122.45 26.5811 122.123 26.4419 121.778 26.428C121.434 26.414 121.096 26.5265 120.833 26.7429C120.62 26.9348 120.467 27.181 120.391 27.4532C120.316 27.7254 120.321 28.0126 120.406 28.2821C120.455 28.4709 120.552 28.6451 120.687 28.7892C120.822 28.9333 120.992 29.0428 121.182 29.108C121.388 29.1849 121.61 29.2145 121.83 29.1944C122.05 29.1744 122.262 29.1053 122.45 28.9926C122.637 28.8799 122.796 28.7265 122.912 28.5446C123.028 28.3627 123.1 28.1572 123.12 27.9442ZM121.531 26.6678C121.846 26.6348 122.164 26.7149 122.422 26.893C122.551 27.004 122.653 27.1399 122.724 27.2919C122.794 27.444 122.83 27.6087 122.83 27.7753C122.83 27.9419 122.794 28.1066 122.724 28.2586C122.653 28.4106 122.551 28.5466 122.422 28.6575C122.216 28.8195 121.955 28.9016 121.69 28.8877C121.425 28.8738 121.175 28.765 120.988 28.5824C120.778 28.3529 120.666 28.0554 120.673 27.7491C120.68 27.4429 120.807 27.1506 121.027 26.9306C121.162 26.7937 121.338 26.7017 121.531 26.6678ZM121.996 27.9071L121.996 27.9067C122.057 27.9096 122.117 27.8973 122.171 27.871C122.226 27.8447 122.272 27.8053 122.306 27.7565C122.376 27.6162 122.39 27.4556 122.345 27.306C122.319 27.2269 122.267 27.1582 122.197 27.1107C122.127 27.0631 122.043 27.0394 121.957 27.0432H121.221C121.221 27.5688 121.221 28.0568 121.259 28.5449H121.531V27.9067H121.763C121.878 28.1274 122.007 28.3406 122.151 28.5449H122.422C122.306 28.3573 122.151 28.1322 121.996 27.9071ZM122.063 27.6113C122.036 27.6451 121.999 27.6698 121.957 27.6814C121.791 27.7126 121.622 27.7252 121.453 27.719V27.2685C121.622 27.242 121.795 27.2548 121.957 27.306C121.999 27.3177 122.036 27.3423 122.063 27.3761C122.089 27.41 122.103 27.4513 122.103 27.4937C122.103 27.5361 122.089 27.5774 122.063 27.6113Z" fill="#B1B2B4"/>
</g>
</svg>
