<svg width="57" height="57" viewBox="0 0 57 57" fill="none" xmlns="http://www.w3.org/2000/svg">
<rect x="0.5" y="0.5" width="56" height="56" rx="28" fill="#C4FF67"/>
<rect x="0.5" y="0.5" width="56" height="56" rx="28" stroke="#C4FF67"/>
<g clip-path="url(#clip0_93_9)">
<path fill-rule="evenodd" clip-rule="evenodd" d="M28.5 22.25C28.9931 22.25 29.3929 22.6497 29.3929 23.1429V33.8571C29.3929 34.3503 28.9931 34.75 28.5 34.75C28.0069 34.75 27.6072 34.3503 27.6072 33.8571V23.1429C27.6072 22.6497 28.0069 22.25 28.5 22.25Z" fill="#28352C"/>
<path fill-rule="evenodd" clip-rule="evenodd" d="M27.8685 22.5115C28.2172 22.1628 28.7826 22.1628 29.1312 22.5115L31.8098 25.1901C32.1585 25.5388 32.1585 26.1041 31.8098 26.4528C31.4611 26.8015 30.8958 26.8015 30.5471 26.4528L28.4999 24.4055L26.4527 26.4528C26.104 26.8015 25.5387 26.8015 25.19 26.4528C24.8413 26.1041 24.8413 25.5388 25.19 25.1901L27.8685 22.5115Z" fill="#28352C"/>
<path fill-rule="evenodd" clip-rule="evenodd" d="M28.5 17.7857C22.5827 17.7857 17.7857 22.5827 17.7857 28.5C17.7857 34.4173 22.5827 39.2143 28.5 39.2143C34.4173 39.2143 39.2143 34.4173 39.2143 28.5C39.2143 22.5827 34.4173 17.7857 28.5 17.7857ZM16 28.5C16 21.5964 21.5964 16 28.5 16C35.4036 16 41 21.5964 41 28.5C41 35.4036 35.4036 41 28.5 41C21.5964 41 16 35.4036 16 28.5Z" fill="#28352C"/>
</g>
<defs>
<clipPath id="clip0_93_9">
<rect width="25" height="25" fill="white" transform="translate(16 16)"/>
</clipPath>
</defs>
</svg>
