<svg width="126" height="46" viewBox="0 0 126 46" fill="none" xmlns="http://www.w3.org/2000/svg">
<g id="icon-ansys">
<path id="Union" fill-rule="evenodd" clip-rule="evenodd" d="M20.16 31.1982L28.8033 9.71106H34.6031L25.973 31.1982H20.16ZM44.7867 31.2059L36.0173 10.4057L33.0458 17.6247L38.5726 31.2059H44.7867ZM55.1661 15.8309V15.8042C56.9268 15.8042 58.2411 16.3213 59.096 17.3766C59.9572 18.4185 60.3878 19.9948 60.3878 22.1053V31.0742H55.8572V22.3114C55.8572 21.3 55.6708 20.5577 55.3017 20.094C54.9326 19.6303 54.3564 19.3956 53.5768 19.3956C53.158 19.379 52.7404 19.4519 52.3511 19.6093C51.9619 19.7668 51.6096 20.0054 51.3171 20.3096C50.7484 20.9216 50.4641 21.7332 50.4641 22.7446V31.1296H45.9316V16.1992H50.3398V18.325C50.8368 17.5328 51.5364 16.8918 52.3641 16.4702C53.2346 16.0341 54.1952 15.8149 55.1661 15.8309ZM71.2324 22.3229L71.2418 22.3038C72.7426 22.6492 73.8366 23.1682 74.5447 23.8724C75.2351 24.5708 75.5803 25.5173 75.5803 26.7119C75.6026 27.3763 75.4589 28.0356 75.1626 28.6287C74.8664 29.2219 74.4271 29.7296 73.8856 30.1048C72.7558 30.9266 71.2003 31.3376 69.2194 31.3376C67.9589 31.3497 66.7024 31.1912 65.4834 30.8662C64.4374 30.5947 63.4472 30.1373 62.559 29.5152L63.7585 26.355C64.5719 26.9072 65.4599 27.3372 66.3948 27.6317C67.3338 27.9307 68.3123 28.0832 69.2966 28.0839C69.9895 28.0839 70.5413 27.9694 70.9311 27.7347C71.1071 27.6471 71.2554 27.5113 71.3593 27.3427C71.4631 27.1741 71.5183 26.9794 71.5186 26.7806C71.5254 26.6162 71.492 26.4526 71.4214 26.3045C71.3507 26.1563 71.2451 26.0282 71.1137 25.9314C70.8407 25.7291 70.3398 25.5459 69.596 25.3837L67.1932 24.838C65.7677 24.5136 64.7207 24.0155 64.0541 23.3342C63.3875 22.653 63.0505 21.7275 63.0505 20.5539C63.0364 19.6661 63.3169 18.7992 63.847 18.0922C64.4329 17.3394 65.2093 16.7617 66.0935 16.4206C67.1486 16.0015 68.2746 15.796 69.4077 15.8156C70.4564 15.8139 71.499 15.9781 72.4978 16.3023C73.4642 16.6092 74.3759 17.0711 75.1981 17.6705L73.9967 20.7104C72.4363 19.6176 70.8953 19.0712 69.3738 19.0712C68.6752 19.0712 68.1234 19.1933 67.7242 19.4376C67.5405 19.5371 67.3874 19.6862 67.2821 19.8684C67.1767 20.0506 67.1232 20.2588 67.1273 20.4699C67.1209 20.6171 67.1502 20.7636 67.2126 20.8966C67.275 21.0297 67.3685 21.1452 67.4851 21.2332C67.8722 21.4784 68.2985 21.6534 68.7448 21.7504L71.2324 22.3229ZM104.809 23.9544V23.9258C105.493 24.6281 105.836 25.5765 105.837 26.7711C105.86 27.4355 105.716 28.0948 105.42 28.6879C105.123 29.281 104.684 29.7887 104.143 30.164C103.011 30.9858 101.457 31.3967 99.4782 31.3967C98.2213 31.4074 96.9686 31.2476 95.7536 30.9216C94.708 30.6489 93.718 30.1916 92.8292 29.5705L94.0306 26.4104C94.8435 26.9634 95.7316 27.3935 96.6668 27.687C97.6081 27.9881 98.5891 28.1418 99.5762 28.1431C100.275 28.1431 100.82 28.0267 101.209 27.7939C101.385 27.7059 101.533 27.57 101.636 27.4015C101.74 27.2329 101.796 27.0384 101.796 26.8398C101.802 26.6741 101.767 26.5097 101.694 26.3614C101.621 26.213 101.512 26.0856 101.378 25.9906C101.105 25.7883 100.604 25.6051 99.8624 25.4429L97.4596 24.8971C96.0398 24.5727 94.9947 24.0747 94.3262 23.3934C93.6577 22.7122 93.3225 21.7866 93.3225 20.613C93.3061 19.7223 93.586 18.8518 94.1172 18.1418C94.7073 17.3877 95.4883 16.81 96.3769 16.4702C97.4324 16.0525 98.558 15.8471 99.691 15.8653C100.74 15.8641 101.782 16.0283 102.781 16.3519C103.748 16.6584 104.661 17.1204 105.483 17.7201L104.282 20.76C102.717 19.6685 101.181 19.1208 99.659 19.1208C98.9604 19.1208 98.4068 19.2429 98.0095 19.4872C97.8257 19.5867 97.6727 19.7358 97.5673 19.918C97.462 20.1002 97.4084 20.3084 97.4125 20.5195C97.4061 20.6669 97.4355 20.8136 97.4982 20.9468C97.5609 21.0799 97.655 21.1953 97.7722 21.2829C98.1586 21.5349 98.5856 21.7164 99.0338 21.8191L101.527 22.3916C103.026 22.7331 104.122 23.2579 104.809 23.9544ZM81.1391 16.2908L84.6793 25.0345L88.2119 16.2908H92.5975L84.3818 36.6464H79.9961L82.4008 30.4826L76.7516 16.2908H81.1391Z" fill="#B1B2B4"/>
</g>
</svg>
