<svg width="32" height="22,4" viewBox="0 0 32 22" fill="none" xmlns="http://www.w3.org/2000/svg">
<g id="Payment-Method-ApplePay">
<rect id="BASE" x="0.5" y="0.5" width="40" height="27" rx="2" fill="white" stroke="#D9D9D9"/>
<path id="ApplePay" fill-rule="evenodd" clip-rule="evenodd" d="M9.777 10.4218C10.3276 10.4681 10.8782 10.1443 11.2224 9.73371C11.5608 9.31159 11.7845 8.74492 11.7271 8.16669C11.2396 8.18982 10.6373 8.4905 10.2932 8.91261C9.97775 9.2769 9.70817 9.8667 9.777 10.4218ZM16.3271 17.8695V8.85478H19.6824C21.4146 8.85478 22.6248 10.0575 22.6248 11.8153C22.6248 13.5732 21.3917 14.7875 19.6366 14.7875H17.7151V17.8695H16.3271ZM11.7214 10.5317C11.2363 10.5035 10.7936 10.6788 10.4361 10.8203C10.2061 10.9114 10.0112 10.9885 9.86301 10.9885C9.69668 10.9885 9.49381 10.9072 9.26603 10.816C8.96757 10.6965 8.62634 10.5598 8.26851 10.5664C7.44832 10.578 6.68548 11.0463 6.26678 11.7922C5.40644 13.2841 6.04309 15.4929 6.87475 16.7072C7.28198 17.3086 7.76951 17.9678 8.4119 17.9447C8.69451 17.9339 8.89781 17.8469 9.1082 17.7569C9.35042 17.6533 9.60204 17.5457 9.99493 17.5457C10.3742 17.5457 10.6148 17.6505 10.8458 17.7512C11.0654 17.8468 11.2763 17.9387 11.5894 17.9331C12.2548 17.9215 12.6735 17.3317 13.0807 16.7304C13.5202 16.0849 13.7133 15.455 13.7426 15.3594L13.746 15.3484C13.7453 15.3477 13.7399 15.3452 13.7303 15.3408C13.5834 15.2729 12.4605 14.7547 12.4498 13.365C12.439 12.1986 13.3404 11.6076 13.4823 11.5146L13.4823 11.5146L13.4823 11.5146C13.491 11.5089 13.4968 11.5051 13.4994 11.5031C12.9258 10.6473 12.0311 10.5548 11.7214 10.5317ZM25.16 17.9388C26.0318 17.9388 26.8405 17.4936 27.2076 16.7881H27.2363V17.8694H28.5211V13.3823C28.5211 12.0813 27.4887 11.2429 25.8999 11.2429C24.4258 11.2429 23.3361 12.0929 23.2959 13.2609H24.5463C24.6495 12.7058 25.16 12.3415 25.8598 12.3415C26.7086 12.3415 27.1847 12.7405 27.1847 13.4749V13.9721L25.4525 14.0762C23.8408 14.1745 22.969 14.8395 22.969 15.996C22.969 17.164 23.8695 17.9388 25.16 17.9388ZM25.5328 16.8691C24.7929 16.8691 24.3225 16.5106 24.3225 15.9613C24.3225 15.3946 24.7757 15.065 25.6417 15.013L27.1846 14.9147V15.4235C27.1846 16.2677 26.4734 16.8691 25.5328 16.8691ZM32.7826 18.2222C32.2263 19.8008 31.5896 20.3212 30.236 20.3212C30.1328 20.3212 29.7886 20.3096 29.7083 20.2865V19.2052C29.7944 19.2168 30.0066 19.2283 30.1156 19.2283C30.7293 19.2283 31.0734 18.9681 31.2856 18.2916L31.4118 17.8926L29.0602 11.3296H30.5113L32.146 16.6552H32.1746L33.8093 11.3296H35.2203L32.7826 18.2222ZM17.715 10.0344H19.3152C20.5197 10.0344 21.208 10.682 21.208 11.8211C21.208 12.9603 20.5197 13.6137 19.3095 13.6137H17.715V10.0344Z" fill="black"/>
</g>
</svg>
