<svg width="33" height="23" viewBox="0 0 33 23" fill="none" xmlns="http://www.w3.org/2000/svg">
<g id="Payment-Method-Visa">
<rect id="BASE" x="0.5" y="0.5" width="32" height="22" rx="2" fill="white" stroke="#D9D9D9"/>
<path id="visa-logo" fill-rule="evenodd" clip-rule="evenodd" d="M10.0796 15.5808H8.0804L6.58128 9.76767C6.51012 9.50027 6.35904 9.26387 6.1368 9.15245C5.58219 8.87245 4.97103 8.64961 4.30432 8.53723V8.31342H7.52481C7.96929 8.31342 8.30264 8.64961 8.3582 9.04006L9.13603 13.2333L11.1342 8.31342H13.0778L10.0796 15.5808ZM14.189 15.5808H12.301L13.8556 8.31342H15.7437L14.189 15.5808ZM18.1864 10.3267C18.2419 9.93529 18.5753 9.71148 18.9642 9.71148C19.5753 9.65529 20.2411 9.76768 20.7967 10.0467L21.13 8.48201C20.5744 8.2582 19.9633 8.14581 19.4087 8.14581C17.5762 8.14581 16.2428 9.15245 16.2428 10.5495C16.2428 11.6124 17.1873 12.1704 17.854 12.5066C18.5753 12.8419 18.8531 13.0657 18.7975 13.4009C18.7975 13.9037 18.2419 14.1275 17.6873 14.1275C17.0206 14.1275 16.3539 13.9599 15.7437 13.6799L15.4103 15.2456C16.0771 15.5246 16.7983 15.637 17.4651 15.637C19.5198 15.6922 20.7967 14.6866 20.7967 13.1771C20.7967 11.2762 18.1864 11.1648 18.1864 10.3267V10.3267ZM27.4043 15.5808L25.9052 8.31342H24.295C23.9616 8.31342 23.6283 8.53723 23.5171 8.87245L20.7411 15.5808H22.6847L23.0727 14.5189H25.4607L25.683 15.5808H27.4043ZM24.5727 10.2705L25.1273 13.0095H23.5727L24.5727 10.2705Z" fill="#172B85"/>
</g>
</svg>
