<svg width="32" height="23" viewBox="0 0 32 23" fill="none" xmlns="http://www.w3.org/2000/svg">
<g id="Payment-Method-Amex">
<rect id="BASE" x="0.5" y="0.5" width="31" height="22" rx="2" fill="#1F72CD" stroke="#D9D9D9"/>
<path id="AMEX" fill-rule="evenodd" clip-rule="evenodd" d="M5.76609 8.07928L2.78271 15.203H6.35424L6.797 14.0672H7.80907L8.25183 15.203H12.1831V14.3361L12.5334 15.203H14.5669L14.9172 14.3178V15.203H23.0931L24.0873 14.0967L25.0182 15.203L29.2175 15.2122L26.2247 11.661L29.2175 8.07928H25.0833L24.1156 9.16516L23.214 8.07928H14.3197L13.5559 9.91798L12.7742 8.07928H9.21015V8.91668L8.81367 8.07928H5.76609ZM17.9752 9.09086H22.6702L24.1061 10.7645L25.5884 9.09086H27.0244L24.8426 11.66L27.0244 14.1996H25.5233L24.0873 12.5065L22.5975 14.1996H17.9752V9.09086ZM19.1346 11.0824V10.1493V10.1484H22.0642L23.3424 11.6407L22.0075 13.1412H19.1346V12.1225H21.6959V11.0824H19.1346ZM6.45712 9.09086H8.19805L10.1769 13.9215V9.09086H12.084L13.6125 12.5544L15.0211 9.09086H16.9187V14.2026H15.7641L15.7547 10.1971L14.0713 14.2026H13.0384L11.3457 10.1971V14.2026H8.9703L8.51998 13.0566H6.08705L5.63766 14.2016H4.36497L6.45712 9.09086ZM6.50249 11.9972L7.30404 9.95575L8.10466 11.9972H6.50249Z" fill="white"/>
</g>
</svg>
