<svg width="41" height="29" viewBox="0 0 41 29" fill="none" xmlns="http://www.w3.org/2000/svg">
<rect x="0.5" y="0.5" width="40" height="27.7" rx="2" fill="white" stroke="#D9D9D9"/>
<path fill-rule="evenodd" clip-rule="evenodd" d="M20.882 20.9822C19.3175 22.303 17.2882 23.1003 15.0708 23.1003C10.1229 23.1003 6.11182 19.1307 6.11182 14.234C6.11182 9.3373 10.1229 5.36774 15.0708 5.36774C17.2882 5.36774 19.3176 6.16505 20.882 7.48579C22.4464 6.16506 24.4757 5.36776 26.6932 5.36776C31.6411 5.36776 35.6521 9.33732 35.6521 14.234C35.6521 19.1307 31.6411 23.1003 26.6932 23.1003C24.4757 23.1003 22.4464 22.303 20.882 20.9822Z" fill="#ED0006"/>
<path fill-rule="evenodd" clip-rule="evenodd" d="M20.8818 20.9822C22.8081 19.356 24.0296 16.9362 24.0296 14.234C24.0296 11.5318 22.8081 9.112 20.8818 7.48576C22.4463 6.16503 24.4756 5.36774 26.693 5.36774C31.6409 5.36774 35.652 9.3373 35.652 14.234C35.652 19.1307 31.6409 23.1003 26.693 23.1003C24.4756 23.1003 22.4463 22.303 20.8818 20.9822Z" fill="#F9A000"/>
<path fill-rule="evenodd" clip-rule="evenodd" d="M20.8821 20.9823C22.8083 19.356 24.0298 16.9362 24.0298 14.2341C24.0298 11.532 22.8083 9.11214 20.8821 7.4859C18.9558 9.11214 17.7344 11.5319 17.7344 14.2341C17.7344 16.9362 18.9558 19.356 20.8821 20.9823Z" fill="#FF5E00"/>
</svg>
