<svg width="40" height="28" viewBox="0 0 40 28" fill="none" xmlns="http://www.w3.org/2000/svg">
<g id="Payment-Method-Amex">
<rect id="BASE" x="0.5" y="0.5" width="39" height="27" rx="2" fill="#1F72CD" stroke="#D9D9D9"/>
<path id="AMEX" fill-rule="evenodd" clip-rule="evenodd" d="M7.2075 9.83569L3.47827 18.5081H7.94268L8.49613 17.1253H9.76121L10.3147 18.5081H15.2287V17.4527L15.6666 18.5081H18.2085L18.6464 17.4304V18.5081H28.8663L30.109 17.1612L31.2726 18.5081L36.5218 18.5192L32.7807 14.1961L36.5218 9.83569H31.354L30.1443 11.1576L29.0174 9.83569H17.8994L16.9447 12.0741L15.9677 9.83569H11.5126V10.8551L11.017 9.83569H7.2075ZM22.4688 11.0672H28.3376L30.1326 13.1047L31.9854 11.0672H33.7804L31.0531 14.1949L33.7804 17.2865H31.904L30.109 15.2253L28.2467 17.2865H22.4688V11.0672ZM23.9182 13.4917V12.3557V12.3546H27.5801L29.1779 14.1713L27.5093 15.998H23.9182V14.7578H27.1198V13.4917H23.9182ZM8.07128 11.0672H10.2474L12.721 16.948V11.0672H15.1049L17.0155 15.2837L18.7763 11.0672H21.1483V17.2902H19.705L19.6932 12.4139L17.589 17.2902H16.2979L14.1819 12.4139V17.2902H11.2128L10.6498 15.8951H7.60869L7.04695 17.2889H5.45609L8.07128 11.0672ZM8.12799 14.6054L9.12993 12.1201L10.1307 14.6054H8.12799Z" fill="white"/>
</g>
</svg>
