<svg width="32" height="22,4" viewBox="0 0 32 22" fill="none" xmlns="http://www.w3.org/2000/svg">
<g id="Payment Method-Stripe">
<rect id="BASE" x="0.5" y="0.5" width="39" height="27" rx="2" fill="white" stroke="#D9D9D9"/>
<path id="Stripe" fill-rule="evenodd" clip-rule="evenodd" d="M21.4921 9.49897L19.4601 9.94413V8.26242L21.4921 7.8255V9.49897ZM13.2347 8.78178L11.2595 9.21045L11.2514 15.8137C11.2514 17.0337 12.15 17.9323 13.3481 17.9323C14.0119 17.9323 14.4976 17.8086 14.7648 17.6603V15.9868C14.5057 16.0939 13.2267 16.4732 13.2267 15.2531V12.3266H14.7648V10.5707H13.2267L13.2347 8.78178ZM8.45056 12.2194C8.02151 12.2194 7.76246 12.3431 7.76246 12.6646C7.76246 13.0156 8.20829 13.17 8.76139 13.3616C9.66307 13.6739 10.8498 14.085 10.8549 15.6076C10.8549 17.0832 9.69723 17.9323 8.01341 17.9323C7.31722 17.9323 6.55626 17.7922 5.8034 17.4624V15.5004C6.48341 15.8796 7.34151 16.1599 8.01341 16.1599C8.46675 16.1599 8.79056 16.0363 8.79056 15.657C8.79056 15.2682 8.30728 15.0905 7.72382 14.8759C6.83525 14.5491 5.71436 14.1369 5.71436 12.7635C5.71436 11.3044 6.80722 10.4305 8.45056 10.4305C9.12247 10.4305 9.78628 10.5377 10.4582 10.8097V12.747C9.84295 12.409 9.0658 12.2194 8.45056 12.2194ZM31.9348 10.4305C33.8534 10.4305 34.8572 12.0958 34.8572 14.2062C34.8572 14.3201 34.8518 14.5107 34.8473 14.6723V14.6723V14.6724L34.8473 14.6725L34.8472 14.674C34.8439 14.7922 34.841 14.8946 34.841 14.9398H30.8824C30.9715 15.9126 31.6677 16.1929 32.4529 16.1929C33.2543 16.1929 33.8858 16.0198 34.4362 15.7395V17.3882C33.8858 17.7015 33.1572 17.9241 32.1939 17.9241C30.2186 17.9241 28.8424 16.671 28.8424 14.1897C28.8424 12.0958 30.0081 10.4305 31.9348 10.4305ZM31.9267 12.104C31.4167 12.104 30.8581 12.4915 30.8581 13.423H32.9467C32.9467 12.4915 32.4205 12.104 31.9267 12.104ZM17.2825 11.1807L17.153 10.5707H15.4044V17.7839H17.4283V12.8954C17.9059 12.2606 18.7154 12.376 18.9664 12.4667V10.5707C18.7073 10.4717 17.7602 10.2904 17.2825 11.1807ZM19.4599 10.5706H21.4919V17.7839H19.4599V10.5706ZM25.7176 10.4305C24.9242 10.4305 24.4142 10.8097 24.1309 11.0735L24.0257 10.5624H22.2447V20.1746L24.2685 19.7377L24.2766 17.4047C24.568 17.6191 24.9971 17.9241 25.7095 17.9241C27.1585 17.9241 28.4781 16.737 28.4781 14.1237C28.47 11.733 27.1342 10.4305 25.7176 10.4305ZM25.2318 16.1104C24.7542 16.1104 24.4709 15.9373 24.2766 15.723L24.2685 12.6646C24.479 12.4255 24.7704 12.2606 25.2318 12.2606C25.9685 12.2606 26.4785 13.1015 26.4785 14.1814C26.4785 15.2861 25.9766 16.1104 25.2318 16.1104Z" fill="#6461FC"/>
</g>
</svg>
