<svg width="32" height="23" viewBox="0 0 32 23" fill="none" xmlns="http://www.w3.org/2000/svg">
<g id="Payment Method-Stripe">
<rect id="BASE" x="0.5" y="0.5" width="31" height="22" rx="2" fill="white" stroke="#D9D9D9"/>
<path id="Stripe" fill-rule="evenodd" clip-rule="evenodd" d="M17.1937 7.80274L15.5681 8.1684V6.787L17.1937 6.4281V7.80274ZM10.5878 7.21362L9.00765 7.56574L9.00117 12.9898C9.00117 13.992 9.72003 14.7301 10.6785 14.7301C11.2096 14.7301 11.5981 14.6285 11.8119 14.5066V13.132C11.6046 13.22 10.5814 13.5315 10.5814 12.5293V10.1254H11.8119V8.68306H10.5814L10.5878 7.21362ZM6.7605 10.0374C6.41726 10.0374 6.21002 10.139 6.21002 10.4031C6.21002 10.6914 6.56668 10.8182 7.00916 10.9756C7.7305 11.2321 8.67992 11.5698 8.68393 12.8205C8.68393 14.0326 7.75783 14.7301 6.41078 14.7301C5.85382 14.7301 5.24506 14.615 4.64277 14.3441V12.7325C5.18677 13.044 5.87325 13.2742 6.41078 13.2742C6.77345 13.2742 7.0325 13.1727 7.0325 12.8612C7.0325 12.5418 6.64587 12.3958 6.1791 12.2195C5.46825 11.9511 4.57153 11.6125 4.57153 10.4843C4.57153 9.28574 5.44582 8.56795 6.7605 8.56795C7.29802 8.56795 7.82907 8.65598 8.3666 8.87944V10.4708C7.87441 10.1931 7.25269 10.0374 6.7605 10.0374ZM25.5479 8.56795C27.0828 8.56795 27.8858 9.93582 27.8858 11.6694C27.8858 11.763 27.8815 11.9195 27.8779 12.0522L27.8779 12.0526L27.8778 12.0539C27.8752 12.1509 27.8729 12.2349 27.8729 12.272H24.706C24.7772 13.0711 25.3342 13.3013 25.9624 13.3013C26.6035 13.3013 27.1087 13.1591 27.549 12.9289V14.2832C27.1087 14.5405 26.5258 14.7233 25.7551 14.7233C24.1749 14.7233 23.074 13.6941 23.074 11.6558C23.074 9.93582 24.0066 8.56795 25.5479 8.56795ZM25.5414 9.94259C25.1334 9.94259 24.6865 10.2609 24.6865 11.0261H26.3574C26.3574 10.2609 25.9364 9.94259 25.5414 9.94259ZM13.8261 9.18416L13.7225 8.68306H12.3236V14.6082H13.9427V10.5927C14.3248 10.0712 14.9724 10.166 15.1731 10.2405V8.68306C14.9659 8.6018 14.2082 8.45282 13.8261 9.18416ZM15.568 8.68304H17.1936V14.6082H15.568V8.68304ZM20.5741 8.56795C19.9394 8.56795 19.5314 8.87944 19.3048 9.09614L19.2206 8.6763H17.7958V16.572L19.4149 16.2131L19.4213 14.2967C19.6545 14.4728 19.9977 14.7234 20.5676 14.7234C21.7269 14.7234 22.7825 13.7482 22.7825 11.6016C22.776 9.63787 21.7074 8.56795 20.5741 8.56795ZM20.1855 13.2336C19.8034 13.2336 19.5768 13.0914 19.4213 12.9153L19.4149 10.403C19.5832 10.2067 19.8164 10.0712 20.1855 10.0712C20.7749 10.0712 21.1829 10.7619 21.1829 11.649C21.1829 12.5564 20.7813 13.2336 20.1855 13.2336Z" fill="#6461FC"/>
</g>
</svg>
