<svg width="41" height="29" viewBox="0 0 41 29" fill="none" xmlns="http://www.w3.org/2000/svg">
<rect x="0.5" y="0.5" width="40" height="27.7" rx="2" fill="white" stroke="#D9D9D9"/>
<path d="M23.6667 14.2513C23.6667 19.1501 19.7654 23.1214 14.9529 23.1214C10.1403 23.1214 6.23901 19.1501 6.23901 14.2513C6.23901 9.3525 10.1403 5.38123 14.9529 5.38123C19.7654 5.38123 23.6667 9.3525 23.6667 14.2513Z" fill="#ED0006"/>
<path d="M34.9711 14.2513C34.9711 19.1501 31.0698 23.1214 26.2573 23.1214C21.4448 23.1214 17.5435 19.1501 17.5435 14.2513C17.5435 9.3525 21.4448 5.38123 26.2573 5.38123C31.0698 5.38123 34.9711 9.3525 34.9711 14.2513Z" fill="#0099DF"/>
<path fill-rule="evenodd" clip-rule="evenodd" d="M20.605 21.0024C22.4786 19.3754 23.6666 16.9546 23.6666 14.2513C23.6666 11.548 22.4786 9.12712 20.605 7.50018C18.7315 9.12712 17.5435 11.548 17.5435 14.2513C17.5435 16.9546 18.7315 19.3754 20.605 21.0024Z" fill="#6C6BBD"/>
</svg>
