<svg width="33" height="23" viewBox="0 0 33 23" fill="none" xmlns="http://www.w3.org/2000/svg">
<rect x="0.5" y="0.5" width="32" height="22" rx="2" fill="white" stroke="#D9D9D9"/>
<path fill-rule="evenodd" clip-rule="evenodd" d="M16.8076 16.8151C15.5484 17.8735 13.9151 18.5124 12.1303 18.5124C8.14784 18.5124 4.91943 15.3312 4.91943 11.4071C4.91943 7.48288 8.14784 4.3017 12.1303 4.3017C13.9151 4.3017 15.5485 4.94066 16.8076 5.99909C18.0668 4.94067 19.7001 4.30172 21.4849 4.30172C25.4674 4.30172 28.6958 7.4829 28.6958 11.4071C28.6958 15.3313 25.4674 18.5125 21.4849 18.5125C19.7001 18.5125 18.0668 17.8735 16.8076 16.8151Z" fill="#ED0006"/>
<path fill-rule="evenodd" clip-rule="evenodd" d="M16.8076 16.8151C18.358 15.5118 19.3412 13.5726 19.3412 11.4071C19.3412 9.24156 18.358 7.30232 16.8076 5.99907C18.0668 4.94065 19.7001 4.3017 21.4849 4.3017C25.4674 4.3017 28.6958 7.48288 28.6958 11.4071C28.6958 15.3313 25.4674 18.5124 21.4849 18.5124C19.7001 18.5124 18.0668 17.8735 16.8076 16.8151Z" fill="#F9A000"/>
<path fill-rule="evenodd" clip-rule="evenodd" d="M16.8077 16.8151C18.3581 15.5118 19.3412 13.5726 19.3412 11.4071C19.3412 9.24162 18.3581 7.3024 16.8077 5.99915C15.2573 7.3024 14.2742 9.24162 14.2742 11.4071C14.2742 13.5726 15.2573 15.5118 16.8077 16.8151Z" fill="#FF5E00"/>
</svg>
