<svg width="33" height="23" viewBox="0 0 33 23" fill="none" xmlns="http://www.w3.org/2000/svg">
<g id="Payment-Method-ApplePay">
<rect id="BASE" x="0.5" y="0.5" width="32" height="22" rx="2" fill="white" stroke="#D9D9D9"/>
<path id="ApplePay" fill-rule="evenodd" clip-rule="evenodd" d="M7.86934 8.56073C8.31252 8.59873 8.7557 8.33274 9.03269 7.99551C9.30506 7.64877 9.4851 7.18329 9.43894 6.70831C9.04654 6.72731 8.56181 6.9743 8.28482 7.32104C8.03091 7.62027 7.81394 8.10475 7.86934 8.56073ZM13.1414 14.6785V7.27353H15.842C17.2362 7.27353 18.2103 8.26149 18.2103 9.70543C18.2103 11.1494 17.2177 12.1468 15.8051 12.1468H14.2586V14.6785H13.1414ZM9.4343 8.65099C9.04386 8.62787 8.68761 8.7718 8.39985 8.88806C8.21468 8.96287 8.05786 9.02623 7.93856 9.02623C7.80468 9.02623 7.6414 8.95949 7.45807 8.88455L7.45806 8.88455C7.21784 8.78636 6.94319 8.67411 6.65518 8.67949C5.99503 8.68899 5.38104 9.07373 5.04403 9.68645C4.35156 10.9119 4.86399 12.7263 5.53338 13.7238C5.86115 14.2177 6.25355 14.7592 6.77059 14.7402C6.99806 14.7314 7.16169 14.66 7.33103 14.586C7.52599 14.5009 7.72851 14.4125 8.04474 14.4125C8.35001 14.4125 8.54368 14.4986 8.72959 14.5813C8.90636 14.6599 9.07611 14.7354 9.32812 14.7307C9.86363 14.7212 10.2006 14.2367 10.5284 13.7428C10.8821 13.2126 11.0376 12.6952 11.0611 12.6167L11.0639 12.6076C11.0633 12.607 11.059 12.6049 11.0513 12.6013L11.0513 12.6013C10.933 12.5456 10.0293 12.1199 10.0206 10.9784C10.0119 10.0203 10.7374 9.5348 10.8516 9.45838C10.8586 9.45373 10.8633 9.45059 10.8654 9.44896C10.4038 8.74599 9.68359 8.66999 9.4343 8.65099ZM20.2508 14.7354C20.9525 14.7354 21.6034 14.3697 21.8989 13.7902H21.9219V14.6784H22.956V10.9926C22.956 9.92389 22.1251 9.23517 20.8463 9.23517C19.6599 9.23517 18.7827 9.93339 18.7504 10.8928H19.7568C19.8399 10.4369 20.2508 10.1376 20.814 10.1376C21.4972 10.1376 21.8804 10.4654 21.8804 11.0686V11.4771L20.4862 11.5626C19.189 11.6433 18.4873 12.1895 18.4873 13.1395C18.4873 14.099 19.2121 14.7354 20.2508 14.7354ZM20.5508 13.8567C19.9553 13.8567 19.5767 13.5622 19.5767 13.111C19.5767 12.6455 19.9414 12.3748 20.6385 12.332L21.8803 12.2513V12.6693C21.8803 13.3628 21.3079 13.8567 20.5508 13.8567ZM26.3861 14.9682C25.9383 16.2649 25.4258 16.6924 24.3363 16.6924C24.2532 16.6924 23.9763 16.6829 23.9116 16.6639V15.7757C23.9809 15.7851 24.1517 15.7946 24.2394 15.7946C24.7334 15.7946 25.0103 15.5809 25.1812 15.0252L25.2827 14.6974L23.39 9.30644H24.5579L25.8736 13.681H25.8967L27.2124 9.30644H28.3481L26.3861 14.9682ZM14.2584 8.24251H15.5464C16.5159 8.24251 17.0699 8.77448 17.0699 9.71019C17.0699 10.6459 16.5159 11.1826 15.5418 11.1826H14.2584V8.24251Z" fill="black"/>
</g>
</svg>
