<svg width="34" height="23" viewBox="0 0 34 23" fill="none" xmlns="http://www.w3.org/2000/svg">
<rect x="0.5" y="0.5" width="33" height="22" rx="2" fill="white" stroke="#D9D9D9"/>
<path d="M19.6261 11.4209C19.6261 15.3468 16.3908 18.5294 12.3999 18.5294C8.40907 18.5294 5.17383 15.3468 5.17383 11.4209C5.17383 7.49506 8.40907 4.3125 12.3999 4.3125C16.3908 4.3125 19.6261 7.49506 19.6261 11.4209Z" fill="#ED0006"/>
<path d="M29.0006 11.4209C29.0006 15.3468 25.7653 18.5294 21.7745 18.5294C17.7836 18.5294 14.5483 15.3468 14.5483 11.4209C14.5483 7.49506 17.7836 4.3125 21.7745 4.3125C25.7653 4.3125 29.0006 7.49506 29.0006 11.4209Z" fill="#0099DF"/>
<path fill-rule="evenodd" clip-rule="evenodd" d="M17.0872 16.8312C18.6409 15.5274 19.6261 13.5873 19.6261 11.4209C19.6261 9.2545 18.6409 7.31444 17.0872 6.01062C15.5335 7.31444 14.5483 9.2545 14.5483 11.4209C14.5483 13.5873 15.5335 15.5274 17.0872 16.8312Z" fill="#6C6BBD"/>
</svg>
