<svg width="32" height="22,4" viewBox="0 0 32 22" fill="none" xmlns="http://www.w3.org/2000/svg">
<g id="Payment-Method-Visa">
<rect id="BASE" x="0.5" y="0.5" width="40" height="27" rx="2" fill="white" stroke="#D9D9D9"/>
<path id="visa-logo" fill-rule="evenodd" clip-rule="evenodd" d="M12.5231 18.968H10.0393L8.17672 11.8911C8.08832 11.5656 7.90061 11.2778 7.6245 11.1422C6.93543 10.8013 6.17612 10.53 5.34778 10.3932V10.1207H9.34899C9.90122 10.1207 10.3154 10.53 10.3844 11.0053L11.3508 16.1101L13.8334 10.1207H16.2482L12.5231 18.968ZM17.6287 18.968H15.283L17.2146 10.1207H19.5603L17.6287 18.968ZM22.5952 12.5717C22.6642 12.0952 23.0784 11.8227 23.5615 11.8227C24.3209 11.7543 25.148 11.8911 25.8383 12.2308L26.2524 10.326C25.5622 10.0535 24.8028 9.91669 24.1138 9.91669C21.8371 9.91669 20.1804 11.1422 20.1804 12.843C20.1804 14.1369 21.3539 14.8162 22.1822 15.2255C23.0784 15.6336 23.4235 15.9061 23.3545 16.3142C23.3545 16.9263 22.6642 17.1988 21.9751 17.1988C21.1468 17.1988 20.3184 16.9947 19.5603 16.6539L19.1462 18.5599C19.9745 18.8996 20.8707 19.0364 21.699 19.0364C24.2518 19.1036 25.8383 17.8793 25.8383 16.0417C25.8383 13.7276 22.5952 13.5919 22.5952 12.5717V12.5717ZM34.0478 18.968L32.1852 10.1207H30.1846C29.7705 10.1207 29.3563 10.3932 29.2182 10.8013L25.7693 18.968H28.184L28.666 17.6753H31.633L31.9091 18.968H34.0478ZM30.5297 12.5033L31.2188 15.8377H29.2872L30.5297 12.5033Z" fill="#172B85"/>
</g>
</svg>
